<?xml version="1.0" standalone="no"?>
<!DOCTYPE svg PUBLIC "-//W3C//DTD SVG 20010904//EN"
 "http://www.w3.org/TR/2001/REC-SVG-20010904/DTD/svg10.dtd">
<svg version="1.0" xmlns="http://www.w3.org/2000/svg"
 width="943.000000pt" height="456.000000pt" viewBox="0 0 943.000000 456.000000"
 preserveAspectRatio="xMidYMid meet">
<metadata>
Created by potrace 1.16, written by Peter Selinger 2001-2019
</metadata>
<g transform="translate(0.000000,456.000000) scale(0.100000,-0.100000)"
fill="#000000" stroke="none">
<path d="M8472 4475 c-89 -7 -165 -14 -168 -17 -3 -4 23 -9 58 -13 35 -4 77
-13 93 -21 l30 -13 -30 6 c-36 8 -40 8 -137 -2 -67 -6 -78 -5 -78 8 0 9 8 17
18 20 9 2 -17 2 -58 -1 -41 -2 -92 -8 -113 -13 -39 -10 -42 -29 -4 -29 18 0
19 -2 7 -10 -8 -5 -31 -10 -51 -10 -20 0 -57 -6 -83 -14 -35 -11 -53 -12 -75
-3 -30 11 -83 4 -176 -23 -70 -20 -119 -31 -158 -37 -20 -3 -40 -9 -43 -14 -3
-5 -18 -9 -35 -9 -16 0 -29 -4 -29 -10 0 -5 -10 -10 -22 -10 -24 0 -82 -17
-112 -32 -10 -6 -42 -17 -70 -25 -47 -14 -66 -21 -154 -59 -18 -8 -39 -14 -46
-14 -8 0 -19 -7 -26 -15 -7 -8 -25 -15 -41 -15 -15 0 -31 -4 -34 -10 -3 -5
-16 -10 -29 -10 -12 0 -26 -4 -32 -9 -5 -5 -36 -16 -69 -26 -33 -9 -85 -28
-115 -42 -108 -50 -190 -83 -211 -86 -8 -2 -32 -13 -53 -25 -22 -13 -52 -26
-67 -29 -16 -3 -34 -12 -40 -19 -6 -8 -19 -14 -28 -14 -9 0 -25 -7 -35 -15
-11 -8 -26 -15 -33 -15 -8 0 -25 -8 -39 -17 -29 -19 -168 -82 -199 -90 -35 -9
-124 -54 -136 -69 -6 -8 -20 -14 -29 -14 -16 0 -61 -18 -227 -91 -24 -11 -49
-19 -56 -19 -8 0 -34 -16 -59 -35 -45 -36 -156 -85 -190 -85 -11 0 -16 -4 -13
-10 3 -5 0 -10 -8 -10 -18 0 -485 -235 -507 -255 -9 -8 -32 -18 -51 -21 -65
-11 -117 -35 -115 -52 1 -10 -5 -16 -14 -13 -34 8 -45 5 -48 -14 -1 -11 2 -26
7 -34 8 -12 14 -13 37 -2 40 18 50 0 20 -37 -14 -16 -26 -34 -26 -39 0 -5 31
-41 69 -79 205 -210 367 -568 387 -858 7 -90 8 -94 26 -83 11 7 22 24 25 40 3
15 11 27 17 27 15 0 47 106 48 160 0 68 -8 185 -14 196 -3 5 -9 25 -13 44 -7
33 -12 46 -49 132 -9 20 -16 39 -16 43 0 8 -63 138 -70 145 -5 5 -32 58 -37
75 -2 6 2 1 9 -9 7 -11 20 -26 28 -35 8 -9 24 -36 35 -61 30 -68 58 -115 63
-102 2 7 -4 26 -12 43 -21 41 -22 66 -2 50 12 -10 13 -5 5 30 -6 23 -8 47 -6
53 7 20 26 -30 30 -78 6 -66 17 -70 17 -6 0 52 0 53 20 35 28 -25 25 -9 -4 26
-21 25 -23 32 -13 54 10 21 14 23 23 10 6 -8 16 -15 23 -15 7 0 11 -20 11 -54
0 -66 7 -86 29 -86 12 0 13 2 3 8 -7 5 -15 33 -19 63 -7 62 2 61 20 -2 10 -35
18 -45 38 -47 45 -5 86 47 58 75 -6 6 -11 17 -13 24 -1 8 -10 26 -20 41 -10
16 -16 35 -12 43 3 9 2 13 -4 10 -6 -3 -10 5 -10 19 0 19 4 24 16 19 12 -4 14
0 8 21 -7 29 -2 31 27 15 11 -5 17 -14 14 -20 -4 -5 -1 -9 6 -9 6 0 9 8 6 19
-3 14 -1 18 9 14 10 -4 12 0 8 11 -4 11 1 22 12 31 24 17 34 11 34 -22 0 -38
9 -24 12 19 2 35 15 44 30 23 4 -6 8 -2 8 8 0 28 18 19 25 -13 4 -16 11 -30
16 -30 6 0 7 9 4 20 -8 25 10 27 20 3 7 -16 9 -14 15 7 4 14 3 33 -2 44 -7 12
-6 22 1 29 7 7 12 1 16 -19 4 -16 9 -35 11 -43 2 -7 0 -19 -5 -25 -5 -7 -1
-18 11 -31 20 -20 20 -20 16 37 -3 44 -2 55 9 51 10 -4 11 2 7 25 -4 22 -2 31
11 35 9 4 14 3 11 -1 -2 -4 3 -16 11 -27 11 -14 17 -16 20 -7 3 6 9 10 14 6 8
-4 14 33 10 59 0 4 3 7 8 7 5 0 11 -15 14 -32 8 -53 12 -64 29 -89 9 -13 20
-20 24 -16 5 4 2 12 -5 16 -19 12 -6 27 29 34 26 6 30 11 30 37 0 26 -6 34
-39 48 -31 14 -36 20 -25 30 18 16 31 15 38 -3 6 -17 36 -21 36 -5 0 6 -7 10
-16 10 -9 0 -14 6 -11 13 2 6 14 11 27 9 14 -2 20 0 16 7 -4 6 -2 11 4 11 7 0
14 -9 17 -21 4 -16 8 -17 14 -7 5 7 6 21 3 32 -4 11 -2 16 4 12 6 -3 12 -1 14
6 7 20 38 18 38 -3 0 -19 11 -25 23 -12 4 3 2 12 -4 19 -17 20 -3 44 25 44 32
0 34 -3 47 -96 8 -54 14 -72 19 -59 4 11 4 25 0 30 -5 6 -11 35 -13 65 -3 30
-8 63 -12 73 -6 14 -1 17 29 17 25 0 36 -4 36 -15 0 -8 9 -15 20 -15 11 0 20
5 20 10 0 6 -7 10 -16 10 -27 0 -11 33 18 37 22 3 28 -2 38 -32 6 -19 9 -39 5
-45 -8 -13 12 -50 27 -50 9 0 9 3 0 12 -7 7 -12 24 -12 39 0 23 3 26 28 21 15
-3 30 -10 34 -16 11 -15 10 -74 -1 -80 -4 -3 -11 -24 -15 -46 -3 -22 -11 -40
-16 -40 -7 0 -7 -6 -2 -17 5 -10 12 -36 16 -58 10 -60 50 -175 60 -175 5 0 24
-12 43 -26 18 -14 45 -27 58 -28 14 -2 28 -6 31 -9 4 -4 19 2 34 13 16 11 31
20 35 20 30 0 95 130 95 188 0 40 -28 116 -60 162 -10 14 -21 44 -25 68 -4 23
-11 40 -16 36 -5 -3 -5 -13 1 -24 19 -36 11 -42 -26 -21 -19 12 -44 21 -56 21
-11 0 -36 16 -54 36 -34 36 -42 37 -24 5 13 -26 -9 -52 -37 -45 -17 5 -22 15
-25 55 -1 27 1 49 5 49 5 0 1 7 -7 16 -26 25 -20 44 14 44 17 0 30 -4 30 -10
0 -5 6 -10 14 -10 8 0 16 -6 19 -12 2 -7 8 -10 12 -6 4 4 -3 15 -14 25 -36 31
-23 51 29 43 8 -1 17 -6 18 -11 2 -5 9 -9 15 -9 22 -1 77 -59 77 -82 0 -16 3
-19 11 -11 7 7 8 17 1 29 -5 11 -12 39 -16 64 -6 36 -5 43 5 33 7 -7 18 -13
23 -13 6 0 -2 10 -17 23 -20 15 -26 27 -22 40 10 24 40 21 66 -5 l21 -23 -7
33 c-6 30 -5 32 21 32 15 0 33 -8 40 -17 7 -10 16 -15 20 -10 4 4 2 13 -4 19
-22 22 -14 48 13 48 29 0 28 0 15 -35 -9 -23 -6 -32 19 -60 16 -18 31 -39 33
-47 3 -7 9 -10 13 -6 4 4 2 14 -5 23 -10 12 -9 16 4 21 9 4 21 15 27 26 8 15
4 25 -25 54 -40 40 -43 49 -20 58 24 9 54 -12 54 -39 0 -14 5 -25 11 -25 6 0
9 7 5 15 -3 8 0 15 6 15 7 0 5 7 -4 18 -27 30 -19 48 19 44 18 -2 33 -8 33
-13 0 -5 5 -9 11 -9 6 0 7 5 2 13 -24 39 -10 61 27 42 28 -15 34 -27 44 -87 3
-15 10 -35 16 -45 10 -17 11 -16 6 2 -20 79 -21 74 18 61 38 -12 51 -33 41
-66 -5 -15 -12 -19 -26 -15 -13 5 -19 2 -19 -10 0 -9 -4 -14 -9 -11 -12 8 -33
-109 -32 -176 1 -31 8 -80 17 -110 8 -29 18 -64 21 -77 19 -75 160 -178 196
-142 6 6 19 11 28 11 10 0 20 9 24 19 3 11 12 22 21 25 8 3 28 34 45 68 26 56
29 72 28 143 -3 81 11 125 38 125 7 0 13 5 13 11 0 22 83 91 143 119 33 16 79
32 102 36 25 3 42 11 42 19 0 14 -18 16 -27 3 -7 -9 -143 -37 -152 -31 -5 2
-8 -1 -8 -8 0 -15 -47 -59 -54 -51 -3 3 -6 0 -6 -7 0 -12 -97 -111 -110 -111
-12 0 -35 62 -32 85 2 16 1 17 -7 5 -9 -13 -14 -12 -33 8 -13 12 -28 37 -35
55 -11 31 -11 32 -12 5 -1 -26 -2 -26 -28 -13 -15 8 -33 24 -40 37 -10 18 -12
19 -13 6 0 -21 -11 -23 -28 -6 -9 9 -12 9 -12 0 0 -7 -5 -12 -10 -12 -6 0 -10
6 -9 13 1 6 0 19 -4 27 -3 8 -8 35 -11 60 -2 25 -8 55 -11 67 -6 19 -3 22 24
21 18 -1 34 -5 37 -10 3 -4 10 -8 16 -8 7 0 6 5 -2 15 -6 8 -9 18 -6 23 10 17
45 20 57 6 6 -8 16 -14 22 -14 7 0 7 4 -1 12 -17 17 -15 35 3 35 10 0 15 -10
15 -27 0 -16 11 -37 30 -55 17 -16 31 -40 31 -54 1 -18 3 -20 6 -8 3 10 10 14
16 10 7 -3 3 3 -7 15 -19 22 -19 22 2 45 28 30 28 43 -4 72 l-27 25 27 0 c18
0 29 -7 36 -22 5 -13 9 -17 9 -10 1 6 9 12 19 12 15 1 14 3 -5 19 l-22 19 27
5 c15 3 31 1 37 -4 5 -5 16 -9 24 -9 12 0 11 3 -2 18 -10 10 -17 22 -17 25 0
10 48 8 54 -2 3 -5 18 -8 32 -8 l27 0 -24 18 c-20 16 -21 19 -6 19 19 0 70
-48 63 -59 -2 -3 2 -17 10 -31 l14 -25 -6 26 c-5 22 -1 28 26 39 27 11 31 17
28 42 -4 25 -2 29 15 24 17 -4 17 -2 -4 20 l-23 25 44 -6 c25 -4 52 -9 60 -11
8 -3 4 7 -10 22 -22 24 -22 26 -5 19 33 -14 95 -18 95 -7 0 6 -6 13 -12 16 -7
3 -1 4 15 2 15 -2 30 0 33 5 2 4 12 5 22 2 14 -5 14 -3 -3 17 l-20 23 25 -7
c14 -4 37 -9 53 -11 31 -5 69 -28 62 -38 -3 -4 -2 -4 2 -1 7 5 10 21 16 87 1
9 6 17 12 17 19 0 25 -12 13 -27 -6 -7 -9 -16 -6 -18 3 -3 16 11 30 30 l25 35
46 -99 c25 -55 49 -111 53 -125 3 -14 10 -26 14 -26 4 0 11 -11 14 -25 4 -14
11 -25 16 -25 6 0 10 -9 10 -20 0 -11 5 -20 10 -20 14 0 12 26 -2 42 -7 7 -15
24 -16 38 -2 14 -8 29 -13 35 -5 5 -9 17 -9 27 0 10 -4 26 -9 36 -17 31 -61
152 -60 165 0 6 4 2 9 -11 5 -12 21 -27 35 -34 35 -16 66 12 62 56 -2 29 2 33
63 63 36 18 74 33 86 33 11 0 25 5 32 12 15 15 44 -17 69 -78 28 -69 35 -51 8
21 -30 79 -30 85 -6 85 11 0 39 8 63 18 24 11 59 22 79 26 19 3 57 20 82 36
26 16 47 26 47 21 0 -20 57 -75 95 -92 65 -29 132 -33 191 -12 65 23 129 77
118 101 -4 9 -8 20 -8 24 -3 20 -34 30 -152 44 -71 9 -141 16 -156 16 -36 -1
-47 18 -11 20 37 2 37 2 137 -5 56 -4 85 -3 81 3 -3 6 -20 10 -36 10 -16 0
-47 9 -69 20 -22 11 -46 20 -55 20 -8 0 -15 5 -15 10 0 15 15 12 57 -10 21
-10 52 -21 68 -24 17 -2 50 -8 75 -11 25 -4 57 -14 73 -21 42 -22 31 -2 -16
27 -54 34 -93 46 -192 58 -132 17 -163 17 -333 6z"/>
<path d="M9144 4459 c-17 -5 -38 -17 -47 -27 -16 -18 -16 -20 2 -36 18 -16 20
-16 46 8 16 15 36 26 46 26 9 0 25 3 35 7 13 5 15 3 9 -7 -5 -8 -2 -17 7 -24
39 -29 63 -137 39 -175 -6 -9 -5 -21 2 -33 18 -27 28 -22 15 8 -8 16 -8 28 -2
32 20 15 44 63 44 90 0 80 -113 156 -196 131z"/>
<path d="M7764 3898 c1 -17 -5 -24 -23 -26 -13 -2 -28 2 -33 10 -5 8 -6 4 -2
-14 4 -21 1 -29 -17 -38 -19 -11 -24 -9 -40 11 l-18 24 6 -42 c3 -24 1 -48 -5
-55 -6 -7 -13 -30 -17 -50 -4 -21 -11 -38 -16 -38 -5 0 -9 -7 -9 -15 0 -8 4
-15 8 -15 4 0 9 -8 10 -17 6 -67 10 -84 22 -98 7 -8 9 -15 4 -15 -5 0 -3 -4 5
-9 7 -5 15 -21 16 -36 2 -15 10 -32 18 -38 8 -7 20 -26 28 -44 7 -17 17 -29
22 -26 4 3 11 -4 14 -16 5 -20 15 -26 37 -22 5 1 17 -6 27 -15 20 -18 49 -12
108 24 54 33 78 123 66 247 -1 11 -7 33 -13 48 -7 16 -12 32 -12 37 0 5 -3 10
-8 12 -6 3 -65 87 -74 106 -2 4 -16 14 -33 22 -22 12 -30 23 -31 44 -1 15 -10
36 -21 47 -20 20 -20 20 -19 -3z"/>
<path d="M8235 2860 c-17 -7 -18 -9 -2 -9 9 -1 26 -7 37 -13 17 -11 22 -10 29
1 7 10 13 11 30 2 12 -7 19 -16 16 -21 -3 -4 9 -13 27 -19 38 -14 58 -14 38
-1 -10 6 -11 10 -3 10 18 0 134 -57 160 -79 28 -24 63 -81 63 -105 0 -10 16
-58 35 -106 19 -48 38 -101 41 -119 4 -17 13 -36 20 -42 12 -9 14 -4 14 29 0
53 -21 117 -72 216 -22 43 -35 75 -29 72 21 -14 11 11 -16 36 -41 39 -138 95
-179 102 -19 4 -56 18 -81 32 -47 24 -92 30 -128 14z"/>
<path d="M5573 2843 c-13 -2 -23 -9 -23 -14 0 -5 -9 -9 -20 -9 -11 0 -20 -7
-20 -15 0 -8 -9 -19 -19 -25 -15 -8 -18 -17 -14 -47 4 -31 0 -44 -21 -68 -15
-17 -24 -36 -20 -45 3 -8 10 -40 16 -70 6 -30 14 -63 19 -72 5 -10 9 -26 9
-37 0 -30 29 -55 46 -40 9 7 19 8 27 2 18 -13 67 -16 67 -4 0 6 5 11 12 11 9
0 9 -3 0 -12 -7 -7 -12 -16 -12 -20 0 -16 64 -7 99 14 123 76 163 203 104 334
-37 81 -80 112 -165 118 -35 2 -73 2 -85 -1z"/>
<path d="M7495 2796 c-16 -8 -39 -17 -49 -20 -10 -4 -16 -9 -13 -13 4 -3 2
-14 -4 -25 -9 -18 -8 -19 11 -13 21 7 21 6 6 -24 -15 -27 -21 -31 -56 -29 -40
1 -51 19 -16 24 10 1 24 8 30 14 8 9 5 11 -14 5 -14 -4 -29 -11 -34 -16 -6 -5
-23 -9 -38 -9 -15 0 -28 -4 -28 -9 0 -5 -11 -12 -25 -15 -14 -4 -25 -13 -25
-20 0 -8 -7 -16 -15 -20 -8 -3 -15 -12 -15 -21 0 -20 28 -31 43 -16 6 6 26 11
45 11 34 0 34 -1 28 -35 -6 -29 -2 -41 20 -70 25 -33 20 -51 -6 -20 -7 8 -19
15 -26 15 -12 0 -12 -4 0 -27 21 -40 65 -90 66 -76 0 9 7 10 25 3 14 -5 25 -6
25 -2 0 4 8 -3 18 -14 10 -13 44 -29 85 -39 44 -12 63 -21 55 -26 -7 -5 -21
-9 -31 -9 -30 0 -2 -37 39 -50 45 -15 248 -4 237 13 -3 5 -2 8 3 6 15 -8 75
-36 126 -59 28 -13 56 -19 68 -15 20 6 28 25 10 25 -5 0 -10 7 -10 15 0 9 -24
27 -55 41 -30 15 -55 31 -55 37 0 7 4 7 12 -1 7 -7 23 -12 38 -13 33 -1 82
-30 96 -57 6 -12 18 -30 27 -40 10 -10 17 -24 17 -30 0 -11 26 -17 57 -13 6 1
14 -3 18 -9 5 -9 69 -40 81 -40 2 0 4 7 4 16 0 8 7 22 15 30 13 14 15 14 15
-2 0 -13 3 -14 15 -4 12 10 15 10 15 -1 0 -15 44 -33 122 -52 36 -8 56 -8 90
3 l43 14 -62 6 c-44 5 -88 20 -155 53 -95 46 -240 115 -383 182 -44 20 -75 39
-69 42 22 8 -32 95 -78 126 -38 25 -50 28 -94 24 -29 -3 -66 -12 -82 -21 -17
-9 -33 -12 -36 -7 -10 16 -106 35 -118 23 -7 -7 7 -16 45 -28 l56 -17 -18 -26
c-37 -54 -37 -55 2 -48 23 3 37 1 40 -6 2 -8 12 -6 30 6 32 21 47 22 47 2 0
-9 -10 -15 -22 -16 -21 -1 -21 -2 -3 -6 11 -3 24 -9 29 -13 16 -16 66 18 66
45 0 41 36 32 60 -15 28 -54 25 -75 -12 -103 -25 -19 -52 -27 -104 -32 -105
-10 -108 15 -7 56 l48 19 -55 -5 c-49 -5 -53 -4 -37 8 15 13 11 15 -43 21 -33
4 -65 13 -73 20 -7 7 -23 17 -35 20 -18 6 -22 15 -22 46 0 43 -15 84 -40 115
-20 23 -34 59 -21 51 5 -3 11 1 15 9 3 8 13 15 23 15 16 0 16 1 -1 13 -16 12
-14 16 30 56 28 24 43 45 37 49 -5 4 -12 12 -14 19 -3 9 -11 9 -34 -1z"/>
<path d="M3848 2362 c-16 -10 -28 -22 -28 -27 0 -6 -13 -19 -30 -28 -16 -10
-30 -21 -30 -25 0 -5 -27 -35 -59 -69 -66 -67 -86 -101 -95 -156 -7 -41 -5
-42 25 -24 18 10 23 9 26 -1 4 -10 8 -10 19 -1 16 13 19 33 4 24 -6 -3 -7 1
-4 9 3 9 14 16 24 16 12 0 20 9 22 23 2 14 9 21 21 21 9 -1 17 3 17 8 0 6 11
19 25 30 17 13 25 29 25 50 0 21 4 29 14 25 15 -6 61 67 51 82 -3 5 4 16 16
25 21 14 19 37 -4 35 -7 0 -24 -8 -39 -17z"/>
<path d="M8333 2083 c0 -15 -6 -29 -12 -31 -13 -4 -2 -32 13 -32 23 0 139 -84
158 -114 16 -26 18 -46 16 -121 -3 -79 -7 -99 -37 -160 -42 -85 -138 -182
-218 -222 -47 -23 -71 -28 -128 -28 -79 1 -145 26 -126 49 15 18 3 26 -41 26
-21 0 -65 11 -98 24 -102 41 -65 -2 70 -84 64 -39 82 -45 142 -48 72 -4 145
10 188 37 23 15 24 15 11 -2 -7 -9 -40 -26 -72 -38 -33 -12 -58 -24 -56 -26 7
-6 130 24 167 40 19 9 31 16 26 17 -6 0 11 13 36 29 43 27 88 78 88 99 0 6 20
50 44 99 24 48 49 105 55 126 7 20 17 37 22 37 5 0 9 21 9 47 0 34 -9 63 -35
110 -19 35 -31 63 -27 63 4 0 84 -26 177 -58 94 -32 199 -66 235 -75 157 -39
173 -32 34 14 -47 16 -96 37 -108 45 -11 9 -14 14 -6 12 93 -31 194 -58 202
-56 6 2 -48 21 -118 42 -144 43 -314 104 -328 117 -6 5 -26 9 -45 10 l-36 1
33 8 c19 4 39 13 45 20 10 10 7 10 -12 0 -49 -25 -179 -2 -261 47 -3 2 -6 -9
-7 -24z"/>
<path d="M1018 1709 c-95 -10 -252 -68 -233 -87 3 -3 -25 -37 -62 -77 -104
-108 -131 -151 -118 -182 7 -17 7 -17 18 1 36 58 133 170 177 203 34 26 46 40
37 45 -38 26 125 88 234 89 35 0 73 4 84 9 26 11 -28 11 -137 -1z"/>
<path d="M2581 1471 c-10 -7 -6 -11 18 -16 24 -5 31 -12 31 -31 0 -32 -25 -41
-50 -19 -11 10 -20 15 -20 12 0 -4 -11 -2 -24 3 -24 9 -24 8 -10 -18 26 -50
10 -57 -38 -17 -34 29 -50 32 -41 9 5 -13 2 -15 -16 -9 l-23 7 21 -21 c12 -12
21 -25 21 -31 0 -13 -37 -13 -45 0 -5 8 -11 8 -20 0 -9 -7 -21 -7 -39 0 -38
14 -39 13 -15 -11 18 -18 19 -23 7 -35 -11 -11 -21 -12 -41 -5 -15 6 -34 8
-44 4 -12 -5 -14 -3 -8 7 5 8 3 11 -6 8 -8 -3 -14 -11 -14 -19 0 -8 -4 -17
-10 -21 -6 -5 -5 -8 3 -8 32 0 -4 -19 -78 -41 -44 -12 -76 -26 -70 -29 5 -3
-5 -21 -24 -39 -41 -40 -64 -87 -49 -102 7 -7 33 -5 79 7 108 27 124 35 124
64 0 15 -3 20 -8 13 -10 -15 -131 -68 -139 -60 -8 9 16 37 32 37 8 0 16 6 19
13 5 9 7 9 12 0 7 -15 34 -5 34 13 0 10 -9 12 -32 8 l-33 -5 35 16 c19 9 55
20 80 26 25 5 67 19 93 30 26 11 52 17 58 13 7 -4 7 1 0 15 -10 17 -9 21 4 21
8 0 15 -4 15 -8 0 -5 12 -14 26 -20 29 -14 26 -4 -9 35 -21 23 -16 46 9 36 8
-3 29 -26 46 -51 30 -43 52 -46 29 -4 -13 24 -3 36 16 20 27 -22 26 2 -1 27
-15 14 -26 31 -23 38 8 24 32 11 55 -30 25 -45 41 -55 43 -25 0 10 3 12 6 5 7
-18 23 -16 23 2 0 9 -9 33 -20 54 -23 47 -15 59 18 29 14 -13 22 -17 17 -9 -5
9 -3 12 6 9 8 -3 14 -16 14 -31 1 -28 15 -51 15 -24 0 11 8 17 24 17 36 0 41
18 17 51 -25 34 -28 69 -5 69 9 0 14 6 12 13 -5 14 -87 21 -107 8z"/>
<path d="M1693 1248 c-17 -6 -50 -30 -74 -54 l-43 -44 23 -24 c13 -14 20 -29
16 -35 -3 -6 -1 -11 4 -11 6 0 11 4 11 8 0 5 20 29 44 55 36 39 49 47 79 47
24 0 45 -8 64 -25 33 -29 12 -34 -24 -5 -14 11 -37 20 -52 19 -21 0 -23 -2 -8
-8 17 -6 16 -10 -12 -40 -34 -37 -38 -46 -16 -37 18 6 20 -5 4 -21 -17 -17 -3
-43 21 -43 15 0 20 -5 18 -17 -5 -26 -58 -21 -104 10 -20 15 -41 24 -46 21
-10 -6 16 -34 31 -34 6 0 28 -10 49 -22 20 -13 54 -32 76 -43 21 -10 33 -21
28 -23 -6 -2 -28 5 -49 16 -45 23 -93 35 -93 25 0 -9 32 -24 99 -48 48 -17 91
-20 91 -6 0 4 19 7 43 4 l42 -4 -39 21 c-22 11 -43 20 -47 20 -4 0 -20 5 -36
11 -27 10 -27 11 -8 22 33 20 31 46 -5 54 -41 8 -36 30 14 56 l39 21 30 -35
29 -34 -6 33 c-7 40 7 42 24 2 13 -31 25 -36 50 -20 13 8 13 13 2 31 -7 11
-11 24 -7 27 3 4 10 1 14 -7 6 -9 10 -7 14 8 4 16 -2 26 -18 37 -13 9 -28 13
-33 10 -5 -3 -20 6 -32 19 -13 14 -27 25 -31 25 -5 0 3 -12 17 -27 29 -31 57
-91 50 -107 -2 -6 -9 3 -15 19 -28 69 -129 142 -183 131 -20 -4 -27 -2 -22 5
4 7 28 10 61 7 49 -4 53 -3 32 8 -28 16 -71 16 -116 2z"/>
<path d="M2223 1163 c-9 -3 -11 -18 -6 -49 5 -36 3 -43 -9 -39 -16 7 -71 -32
-63 -45 3 -5 -1 -11 -7 -13 -7 -3 -4 -6 8 -6 11 -1 25 4 32 11 9 9 12 9 12 -3
0 -9 8 -5 20 11 l20 25 0 -43 c0 -34 -6 -48 -26 -67 -15 -14 -39 -26 -53 -26
-24 -2 -24 -2 -3 -6 26 -5 91 14 93 28 1 5 3 14 4 19 1 6 3 17 4 25 0 8 7 14
14 13 9 -2 11 18 9 82 -1 59 1 80 8 70 8 -13 10 -12 10 3 0 12 -8 17 -27 16
-16 0 -33 -3 -40 -6z"/>
<path d="M1020 1005 c0 -22 -72 -37 -180 -38 -56 0 -85 -4 -70 -8 14 -4 18 -7
9 -8 -9 -1 -38 6 -65 15 -53 17 -205 19 -304 5 l-55 -9 65 -2 c60 -2 62 -3 30
-11 -19 -5 -72 -10 -118 -11 -57 -1 -78 -5 -66 -11 9 -5 130 -8 281 -6 234 4
262 2 241 -10 -45 -29 -139 -131 -158 -173 -21 -46 -25 -78 -11 -78 4 0 11
-37 13 -82 4 -51 16 -114 32 -161 14 -43 24 -83 20 -89 -9 -14 62 -113 105
-147 63 -50 171 -95 171 -71 0 5 -6 10 -14 10 -8 0 -21 6 -28 14 -8 7 -24 17
-36 20 -13 4 -46 31 -75 59 -55 55 -98 134 -137 250 -59 179 16 371 168 427
79 30 173 41 193 24 13 -12 19 -10 42 14 l27 28 -33 32 c-36 35 -47 39 -47 17z"/>
</g>
</svg>
